# 3ds Max Wavefront OBJ Exporter v0.97b - (c)2007 guruware
# File Created: 14.09.2017 20:07:06

mtllib Stone.mtl

#
# object Sphere001
#

v  657470.5000 742697.2500 -4552371.0000
v  1321259.8750 390205.9063 -4410425.0000
v  1225488.7500 841711.1250 -5206723.5000
v  1419690.6250 390205.9063 -6664901.5000
v  1515768.3750 -74849.2188 -6393000.0000
v  953737.1250 32259.0469 -6707371.5000
v  -379667.5000 390205.9375 -4994209.5000
v  -381365.7500 32259.0469 -5462091.5000
v  -276126.3750 148478.1875 -4778345.5000
v  850287.3750 148478.1875 -4337935.0000
v  1440669.3750 -74849.2188 -4672918.5000
v  1537124.2500 148478.1875 -4513966.0000
v  253480.0625 609658.6250 -5321439.5000
v  55381.1250 506425.0313 -4780837.5000
v  1413603.6250 784460.6250 -6025420.5000
v  1751733.5000 506425.0313 -6335259.5000
v  1149644.5000 613533.2500 -6563726.5000
v  1908801.2500 390205.9375 -5267771.0000
v  2209184.0000 32259.0469 -5733057.0000
v  1984595.5000 506425.0313 -5951515.0000
v  1575529.2500 784460.6250 -5393620.0000
v  1060323.1250 -245776.6250 -6038894.0000
v  -111696.5000 -168730.4375 -5450318.0000
v  312131.3750 -245776.6250 -5199162.5000
v  510090.6563 506425.0313 -6639087.5000
v  -24191.3750 506425.0313 -6238301.5000
v  276575.1250 784460.6250 -5850415.0000
v  257578.5625 269342.0313 -6622587.0000
v  -139075.6250 32259.0469 -6044235.5000
v  -224980.3750 269342.0313 -6084293.5000
v  531446.2500 -168730.3438 -4760052.5000
v  1773800.2500 -168730.3438 -5691994.0000
v  300584.9375 -245776.6250 -5921958.5000
v  531992.0000 -338281.9375 -5469652.0000
v  466810.8125 -168730.4375 -6239303.0000
v  892960.9375 -338281.8125 -5315353.5000
v  1530539.0000 -245776.6250 -5265684.0000
v  -245765.5000 506425.0313 -5608228.5000
v  1803976.5000 148478.1875 -6383131.5000
v  1591513.1250 613533.2500 -4945839.0000
v  675280.2500 706483.8750 -5474963.0000
v  1006222.2500 1032723.8750 -5778215.5000
v  223305.1250 32259.0469 -4630300.5000
v  1591513.1250 -74849.2188 -4945839.0000
v  1310938.0000 -303027.1875 -5805254.0000
# 45 vertices

vn 0.5059 0.5985 0.6212
vn 0.4127 -0.2150 -0.8851
vn -0.9738 -0.1224 0.1917
vn 0.2308 -0.3685 0.9005
vn -0.5190 0.8443 0.1339
vn 0.4621 0.6272 -0.6269
vn 0.9435 0.2672 0.1959
vn 0.6999 0.6914 -0.1794
vn 0.0705 -0.7597 -0.6464
vn -0.5438 -0.6712 0.5038
vn -0.4509 0.6599 -0.6011
vn -0.7315 -0.1870 -0.6557
vn 0.0382 -0.5649 0.8243
vn 0.6006 -0.6886 -0.4064
vn -0.5304 0.2472 0.8109
vn -0.0264 0.1725 0.9847
vn -0.4673 -0.8758 -0.1209
vn -0.5279 -0.4413 -0.7257
vn -0.0547 -0.9331 -0.3556
vn 0.2030 -0.8335 0.5139
vn -0.5496 0.7068 0.4454
vn 0.2771 0.9582 -0.0710
vn -0.1893 0.7739 -0.6044
vn -0.0560 0.0950 -0.9939
vn 0.6658 0.0976 -0.7398
vn 0.8591 0.0869 -0.5043
vn 0.3110 0.6452 0.6979
vn 0.8790 0.0612 0.4729
vn -0.5699 0.5640 0.5976
vn -0.4100 0.9086 -0.0796
vn -0.2323 -0.4535 0.8604
vn -0.4476 0.0875 0.8899
vn 0.7736 -0.3881 0.5009
vn 0.7317 -0.5295 0.4293
vn -0.4468 0.5513 0.7046
vn -0.3450 0.6080 -0.7151
vn -0.0328 -0.0172 -0.9993
vn -0.5763 0.2788 -0.7682
vn 0.1137 -0.8121 0.5724
vn -0.3142 -0.9478 -0.0541
vn -0.9806 0.1085 -0.1633
vn -0.7590 0.5938 -0.2669
vn -0.6800 -0.6205 -0.3907
vn -0.7971 -0.5233 0.3015
vn 0.8814 0.4084 0.2372
vn 0.8222 0.1986 0.5334
vn 0.4525 0.4463 -0.7721
vn 0.0339 0.2391 -0.9704
vn 0.5329 -0.7471 -0.3973
vn 0.2720 -0.9577 0.0935
vn -0.1836 0.8225 0.5383
vn -0.4412 0.8939 -0.0790
vn 0.7819 0.2234 0.5820
vn 0.2471 -0.0957 0.9642
vn -0.4015 -0.4441 -0.8010
vn 0.0173 -0.7658 -0.6429
vn -0.6329 0.7716 0.0642
vn -0.4036 0.0729 0.9120
vn -0.2342 0.1113 0.9658
vn -0.4675 -0.5728 0.6733
vn 0.6890 -0.4295 -0.5838
vn 0.3775 -0.2227 -0.8988
vn 0.7942 0.5997 0.0982
vn 0.4231 0.6554 -0.6257
vn -0.5412 -0.6709 0.5069
vn -0.2014 -0.8878 0.4137
vn -0.9783 0.1235 -0.1664
vn -0.4790 0.8501 0.2189
vn 0.6811 -0.7212 0.1267
vn 0.5078 -0.8611 -0.0230
vn 0.7486 -0.5181 0.4138
vn 0.8236 -0.3382 0.4552
vn -0.3077 -0.6221 0.7199
vn 0.0450 -0.9934 -0.1053
vn 0.6660 0.6270 -0.4041
vn 0.8510 0.0962 -0.5164
vn 0.8671 0.4097 0.2834
vn 0.5030 0.6943 0.5147
vn -0.7820 -0.5315 -0.3255
vn -0.9055 -0.1949 -0.3769
vn 0.1629 -0.8046 -0.5710
vn -0.0767 -0.9246 -0.3731
vn -0.0720 -0.8810 -0.4676
vn -0.5725 -0.5777 -0.5818
vn -0.9060 0.2788 -0.3186
vn -0.7411 0.0975 -0.6643
# 86 vertex normals

g Sphere001
usemtl _crayfishdiffuse
s off
f -45//-86 -44//-86 -43//-86 
f -42//-85 -41//-85 -40//-85 
f -39//-84 -38//-84 -37//-84 
f -36//-83 -35//-83 -34//-83 
f -33//-82 -39//-82 -32//-82 
f -31//-81 -30//-81 -29//-81 
f -28//-80 -27//-80 -26//-80 
f -25//-79 -26//-79 -31//-79 
f -41//-78 -24//-78 -40//-78 
f -23//-77 -22//-77 -37//-77 
f -21//-76 -20//-76 -19//-76 
f -18//-75 -17//-75 -16//-75 
f -36//-74 -15//-74 -35//-74 
f -27//-73 -14//-73 -41//-73 
f -39//-72 -37//-72 -32//-72 
f -45//-71 -36//-71 -44//-71 
f -13//-70 -12//-70 -23//-70 
f -18//-69 -11//-69 -17//-69 
f -24//-68 -12//-68 -13//-68 
f -35//-67 -10//-67 -9//-67 
f -19//-66 -8//-66 -33//-66 
f -43//-65 -25//-65 -31//-65 
f -29//-64 -21//-64 -19//-64 
f -42//-63 -40//-63 -18//-63 
f -30//-62 -7//-62 -42//-62 
f -26//-61 -27//-61 -7//-61 
f -43//-60 -44//-60 -6//-60 
f -34//-59 -27//-59 -28//-59 
f -5//-58 -43//-58 -4//-58 
f -5//-57 -45//-57 -43//-57 
f -3//-56 -15//-56 -36//-56 
f -45//-55 -3//-55 -36//-55 
f -34//-54 -2//-54 -27//-54 
f -2//-53 -9//-53 -27//-53 
f -4//-52 -19//-52 -5//-52 
f -4//-51 -29//-51 -19//-51 
f -42//-50 -18//-50 -21//-50 
f -21//-49 -18//-49 -20//-49 
f -15//-48 -10//-48 -35//-48 
f -23//-47 -10//-47 -22//-47 
f -16//-46 -38//-46 -39//-46 
f -19//-45 -20//-45 -8//-45 
f -17//-44 -13//-44 -23//-44 
f -38//-43 -23//-43 -37//-43 
f -25//-42 -28//-42 -26//-42 
f -6//-41 -34//-41 -28//-41 
f -30//-40 -42//-40 -29//-40 
f -29//-39 -42//-39 -21//-39 
f -14//-38 -1//-38 -41//-38 
f -9//-37 -10//-37 -1//-37 
f -5//-36 -19//-36 -33//-36 
f -33//-35 -45//-35 -5//-35 
f -44//-34 -34//-34 -6//-34 
f -36//-33 -34//-33 -44//-33 
f -40//-32 -11//-32 -18//-32 
f -40//-31 -24//-31 -11//-31 
f -33//-30 -32//-30 -45//-30 
f -32//-29 -3//-29 -45//-29 
f -32//-28 -37//-28 -3//-28 
f -37//-27 -15//-27 -3//-27 
f -27//-26 -41//-26 -7//-26 
f -7//-25 -41//-25 -42//-25 
f -43//-24 -31//-24 -4//-24 
f -4//-23 -31//-23 -29//-23 
f -37//-22 -22//-22 -15//-22 
f -22//-21 -10//-21 -15//-21 
f -16//-20 -39//-20 -8//-20 
f -8//-19 -39//-19 -33//-19 
f -27//-18 -9//-18 -14//-18 
f -14//-17 -9//-17 -1//-17 
f -2//-16 -35//-16 -9//-16 
f -34//-15 -35//-15 -2//-15 
f -23//-14 -12//-14 -10//-14 
f -12//-13 -1//-13 -10//-13 
f -26//-12 -30//-12 -31//-12 
f -26//-11 -7//-11 -30//-11 
f -6//-10 -28//-10 -25//-10 
f -43//-9 -6//-9 -25//-9 
f -17//-8 -23//-8 -38//-8 
f -16//-7 -17//-7 -38//-7 
f -41//-6 -1//-6 -24//-6 
f -24//-5 -1//-5 -12//-5 
f -11//-4 -24//-4 -13//-4 
f -11//-3 -13//-3 -17//-3 
f -20//-2 -16//-2 -8//-2 
f -20//-1 -18//-1 -16//-1 
# 0 polygons - 86 triangles

